# xmcd
# 
# Track frame offsets:
#     150
#     16031
#     37581
#     52718
#     74203
#     95139
#     108790
#     124870
#     144826
#     159319
# 
# Disc length: 2365
# 
# Revision: 5
# Processed by: cddbd v1.5.2PL0 Copyright (c) Steve Scherf et al.
# Submitted via: fre:ac v1.0.31
# 
DISCID=74093b0a
DTITLE=Glen Hansard - Didn't He Ramble
DYEAR=2015
DGENRE=Folk
TTITLE0=Grace Beneath the Pines
TTITLE1=Wedding Ring
TTITLE2=Winning Streak
TTITLE3=Her Mercy
TTITLE4=McCormack's Wall
TTITLE5=Lowly Deserter
TTITLE6=Paying My Way
TTITLE7=My Little Ruin
TTITLE8=Just to be the One
TTITLE9=Stay the Road
EXTD=
EXTT0=
EXTT1=
EXTT2=
EXTT3=
EXTT4=
EXTT5=
EXTT6=
EXTT7=
EXTT8=
EXTT9=
PLAYORDER=
